# xmcd
#
# Track frame offsets:
#	150
#	9975
#	22650
#	31275
#	43987
#	57675
#	67800
#	84900
#	98175
#	110475
#	125250
#	138600
#	149287
#	160425
#
# Disc length: 2320 seconds
#
# Revision: 2
# Processed by: cddbd v1.5.2PL0 Copyright (c) Steve Scherf et al.
# Submitted via: audiograbber 1.83.01
#
DISCID=b8090e0e
DTITLE=Ian Gomm - Summer Holiday
DYEAR=1979
DGENRE=Rock
TTITLE0=Hooked On Love
TTITLE1=Sad Affair
TTITLE2=Black And White
TTITLE3=Come On
TTITLE4=Hold On
TTITLE5=Airplane
TTITLE6=Images
TTITLE7=Twenty Four Hour Service
TTITLE8=That's The Way I Rock 'N' Roll
TTITLE9=Dirty Lies
TTITLE10=You Can't Do That
TTITLE11=Chicken Run
TTITLE12=Another Year
TTITLE13=Goin' Thru The Motions
EXTD=
EXTT0=
EXTT1=
EXTT2=
EXTT3=
EXTT4=
EXTT5=
EXTT6=
EXTT7=
EXTT8=
EXTT9=
EXTT10=
EXTT11=
EXTT12=
EXTT13=
PLAYORDER=
